<mxfile host="app.diagrams.net" agent="Mozilla/5.0 (Windows NT 10.0; Win64; x64) AppleWebKit/537.36 (KHTML, like Gecko) Chrome/132.0.0.0 Safari/537.36" version="26.0.10">
  <diagram name="第 1 页" id="ZsOnw-5BJ-RNYCwF9M4E">
    <mxGraphModel dx="1838" dy="966" grid="0" gridSize="10" guides="1" tooltips="1" connect="1" arrows="1" fold="1" page="1" pageScale="1" pageWidth="827" pageHeight="1169" math="0" shadow="0">
      <root>
        <mxCell id="0" />
        <mxCell id="1" parent="0" />
        <mxCell id="j6RUrQJ49Redqcj4AEcR-1" value="朝" style="ellipse;whiteSpace=wrap;html=1;" vertex="1" parent="1">
          <mxGeometry x="338" y="103" width="55" height="21" as="geometry" />
        </mxCell>
        <mxCell id="j6RUrQJ49Redqcj4AEcR-2" value="" style="endArrow=classic;html=1;rounded=0;" edge="1" parent="1">
          <mxGeometry width="50" height="50" relative="1" as="geometry">
            <mxPoint x="365.16" y="124" as="sourcePoint" />
            <mxPoint x="365" y="168" as="targetPoint" />
          </mxGeometry>
        </mxCell>
        <mxCell id="j6RUrQJ49Redqcj4AEcR-3" value="&lt;font style=&quot;font-size: 22px;&quot;&gt;良云&lt;/font&gt;&lt;font style=&quot;font-size: 10px;&quot;&gt;（叶）&lt;/font&gt;" style="rounded=0;whiteSpace=wrap;html=1;" vertex="1" parent="1">
          <mxGeometry x="326" y="170" width="79" height="27" as="geometry" />
        </mxCell>
        <mxCell id="j6RUrQJ49Redqcj4AEcR-4" value="" style="endArrow=classic;html=1;rounded=0;" edge="1" parent="1">
          <mxGeometry width="50" height="50" relative="1" as="geometry">
            <mxPoint x="393" y="113.16" as="sourcePoint" />
            <mxPoint x="451" y="113" as="targetPoint" />
          </mxGeometry>
        </mxCell>
        <mxCell id="j6RUrQJ49Redqcj4AEcR-5" value="良X" style="rounded=0;whiteSpace=wrap;html=1;" vertex="1" parent="1">
          <mxGeometry x="451" y="100" width="79" height="27" as="geometry" />
        </mxCell>
        <mxCell id="j6RUrQJ49Redqcj4AEcR-6" value="" style="endArrow=none;dashed=1;html=1;dashPattern=1 3;strokeWidth=2;rounded=0;" edge="1" parent="1">
          <mxGeometry width="50" height="50" relative="1" as="geometry">
            <mxPoint x="530" y="115" as="sourcePoint" />
            <mxPoint x="588" y="115" as="targetPoint" />
          </mxGeometry>
        </mxCell>
        <mxCell id="j6RUrQJ49Redqcj4AEcR-7" value="响音、金恭、恭银、恭兵、梅香、凤香、丙香" style="rounded=0;whiteSpace=wrap;html=1;" vertex="1" parent="1">
          <mxGeometry x="592" y="100" width="126" height="62" as="geometry" />
        </mxCell>
        <mxCell id="j6RUrQJ49Redqcj4AEcR-8" value="" style="endArrow=classic;html=1;rounded=0;" edge="1" parent="1">
          <mxGeometry width="50" height="50" relative="1" as="geometry">
            <mxPoint x="247.66000000000003" y="262" as="sourcePoint" />
            <mxPoint x="247.5" y="306" as="targetPoint" />
          </mxGeometry>
        </mxCell>
        <mxCell id="j6RUrQJ49Redqcj4AEcR-9" value="&lt;font style=&quot;font-size: 22px;&quot;&gt;慈忠&lt;/font&gt;" style="rounded=0;whiteSpace=wrap;html=1;" vertex="1" parent="1">
          <mxGeometry x="208.5" y="308" width="79" height="27" as="geometry" />
        </mxCell>
        <mxCell id="j6RUrQJ49Redqcj4AEcR-10" value="" style="endArrow=classic;html=1;rounded=0;" edge="1" parent="1">
          <mxGeometry width="50" height="50" relative="1" as="geometry">
            <mxPoint x="364.66" y="262" as="sourcePoint" />
            <mxPoint x="364.5" y="306" as="targetPoint" />
          </mxGeometry>
        </mxCell>
        <mxCell id="j6RUrQJ49Redqcj4AEcR-11" value="&lt;font style=&quot;font-size: 22px;&quot;&gt;慈学&lt;/font&gt;&lt;font style=&quot;font-size: 10px;&quot;&gt;（杨）&lt;/font&gt;" style="rounded=0;whiteSpace=wrap;html=1;" vertex="1" parent="1">
          <mxGeometry x="325.5" y="308" width="79" height="27" as="geometry" />
        </mxCell>
        <mxCell id="j6RUrQJ49Redqcj4AEcR-12" value="" style="endArrow=classic;html=1;rounded=0;" edge="1" parent="1">
          <mxGeometry width="50" height="50" relative="1" as="geometry">
            <mxPoint x="482.66" y="262" as="sourcePoint" />
            <mxPoint x="482.5" y="306" as="targetPoint" />
          </mxGeometry>
        </mxCell>
        <mxCell id="j6RUrQJ49Redqcj4AEcR-13" value="&lt;span style=&quot;font-size: 22px;&quot;&gt;慈义&lt;/span&gt;" style="rounded=0;whiteSpace=wrap;html=1;" vertex="1" parent="1">
          <mxGeometry x="443.5" y="308" width="79" height="27" as="geometry" />
        </mxCell>
        <mxCell id="j6RUrQJ49Redqcj4AEcR-15" value="" style="endArrow=none;html=1;rounded=0;" edge="1" parent="1">
          <mxGeometry width="50" height="50" relative="1" as="geometry">
            <mxPoint x="247.5" y="262" as="sourcePoint" />
            <mxPoint x="483.5" y="262" as="targetPoint" />
          </mxGeometry>
        </mxCell>
        <mxCell id="j6RUrQJ49Redqcj4AEcR-30" value="" style="endArrow=classic;html=1;rounded=0;" edge="1" parent="1">
          <mxGeometry width="50" height="50" relative="1" as="geometry">
            <mxPoint x="365.16" y="197" as="sourcePoint" />
            <mxPoint x="365.16" y="263" as="targetPoint" />
          </mxGeometry>
        </mxCell>
        <mxCell id="j6RUrQJ49Redqcj4AEcR-31" value="" style="endArrow=classic;html=1;rounded=0;" edge="1" parent="1">
          <mxGeometry width="50" height="50" relative="1" as="geometry">
            <mxPoint x="246.16000000000003" y="395" as="sourcePoint" />
            <mxPoint x="246" y="439" as="targetPoint" />
          </mxGeometry>
        </mxCell>
        <mxCell id="j6RUrQJ49Redqcj4AEcR-32" value="&lt;font style=&quot;font-size: 22px;&quot;&gt;旺喜&lt;/font&gt;" style="rounded=0;whiteSpace=wrap;html=1;" vertex="1" parent="1">
          <mxGeometry x="207" y="441" width="79" height="27" as="geometry" />
        </mxCell>
        <mxCell id="j6RUrQJ49Redqcj4AEcR-33" value="" style="endArrow=classic;html=1;rounded=0;" edge="1" parent="1">
          <mxGeometry width="50" height="50" relative="1" as="geometry">
            <mxPoint x="363.16" y="395" as="sourcePoint" />
            <mxPoint x="363" y="439" as="targetPoint" />
          </mxGeometry>
        </mxCell>
        <mxCell id="j6RUrQJ49Redqcj4AEcR-34" value="&lt;font style=&quot;font-size: 22px;&quot;&gt;孝云&lt;/font&gt;&lt;font style=&quot;font-size: 10px;&quot;&gt;（张）&lt;/font&gt;" style="rounded=0;whiteSpace=wrap;html=1;" vertex="1" parent="1">
          <mxGeometry x="324" y="441" width="79" height="27" as="geometry" />
        </mxCell>
        <mxCell id="j6RUrQJ49Redqcj4AEcR-35" value="" style="endArrow=classic;html=1;rounded=0;" edge="1" parent="1">
          <mxGeometry width="50" height="50" relative="1" as="geometry">
            <mxPoint x="481.16" y="395" as="sourcePoint" />
            <mxPoint x="481" y="439" as="targetPoint" />
          </mxGeometry>
        </mxCell>
        <mxCell id="j6RUrQJ49Redqcj4AEcR-36" value="&lt;span style=&quot;font-size: 22px;&quot;&gt;孝华&lt;/span&gt;" style="rounded=0;whiteSpace=wrap;html=1;" vertex="1" parent="1">
          <mxGeometry x="442" y="441" width="79" height="27" as="geometry" />
        </mxCell>
        <mxCell id="j6RUrQJ49Redqcj4AEcR-37" value="" style="endArrow=none;html=1;rounded=0;" edge="1" parent="1">
          <mxGeometry width="50" height="50" relative="1" as="geometry">
            <mxPoint x="246" y="395" as="sourcePoint" />
            <mxPoint x="482" y="395" as="targetPoint" />
          </mxGeometry>
        </mxCell>
        <mxCell id="j6RUrQJ49Redqcj4AEcR-38" value="" style="endArrow=classic;html=1;rounded=0;" edge="1" parent="1">
          <mxGeometry width="50" height="50" relative="1" as="geometry">
            <mxPoint x="363" y="335" as="sourcePoint" />
            <mxPoint x="363.16" y="395" as="targetPoint" />
          </mxGeometry>
        </mxCell>
        <mxCell id="j6RUrQJ49Redqcj4AEcR-39" value="" style="endArrow=classic;html=1;rounded=0;" edge="1" parent="1">
          <mxGeometry width="50" height="50" relative="1" as="geometry">
            <mxPoint x="247.66000000000003" y="534" as="sourcePoint" />
            <mxPoint x="247.5" y="578" as="targetPoint" />
          </mxGeometry>
        </mxCell>
        <mxCell id="j6RUrQJ49Redqcj4AEcR-40" value="&lt;span style=&quot;font-size: 22px;&quot;&gt;友金&lt;/span&gt;" style="rounded=0;whiteSpace=wrap;html=1;" vertex="1" parent="1">
          <mxGeometry x="208.5" y="580" width="79" height="27" as="geometry" />
        </mxCell>
        <mxCell id="j6RUrQJ49Redqcj4AEcR-43" value="" style="endArrow=classic;html=1;rounded=0;" edge="1" parent="1">
          <mxGeometry width="50" height="50" relative="1" as="geometry">
            <mxPoint x="482.66" y="534" as="sourcePoint" />
            <mxPoint x="482.5" y="578" as="targetPoint" />
          </mxGeometry>
        </mxCell>
        <mxCell id="j6RUrQJ49Redqcj4AEcR-44" value="&lt;span style=&quot;font-size: 22px;&quot;&gt;友银&lt;/span&gt;&lt;span style=&quot;font-size: 10px;&quot;&gt;（彭）&lt;/span&gt;" style="rounded=0;whiteSpace=wrap;html=1;" vertex="1" parent="1">
          <mxGeometry x="443.5" y="580" width="79" height="27" as="geometry" />
        </mxCell>
        <mxCell id="j6RUrQJ49Redqcj4AEcR-45" value="" style="endArrow=none;html=1;rounded=0;" edge="1" parent="1">
          <mxGeometry width="50" height="50" relative="1" as="geometry">
            <mxPoint x="247.5" y="534" as="sourcePoint" />
            <mxPoint x="483.5" y="534" as="targetPoint" />
          </mxGeometry>
        </mxCell>
        <mxCell id="j6RUrQJ49Redqcj4AEcR-46" value="" style="endArrow=classic;html=1;rounded=0;" edge="1" parent="1">
          <mxGeometry width="50" height="50" relative="1" as="geometry">
            <mxPoint x="362.66" y="468" as="sourcePoint" />
            <mxPoint x="362.66" y="534" as="targetPoint" />
          </mxGeometry>
        </mxCell>
        <mxCell id="j6RUrQJ49Redqcj4AEcR-55" value="" style="endArrow=classic;html=1;rounded=0;" edge="1" parent="1">
          <mxGeometry width="50" height="50" relative="1" as="geometry">
            <mxPoint x="146.16000000000003" y="673" as="sourcePoint" />
            <mxPoint x="146" y="717" as="targetPoint" />
          </mxGeometry>
        </mxCell>
        <mxCell id="j6RUrQJ49Redqcj4AEcR-58" value="金兰" style="rounded=0;whiteSpace=wrap;html=1;" vertex="1" parent="1">
          <mxGeometry x="125" y="718" width="44" height="18" as="geometry" />
        </mxCell>
        <mxCell id="j6RUrQJ49Redqcj4AEcR-61" value="" style="endArrow=none;html=1;rounded=0;" edge="1" parent="1">
          <mxGeometry width="50" height="50" relative="1" as="geometry">
            <mxPoint x="146" y="673" as="sourcePoint" />
            <mxPoint x="322" y="673" as="targetPoint" />
          </mxGeometry>
        </mxCell>
        <mxCell id="j6RUrQJ49Redqcj4AEcR-62" value="" style="endArrow=classic;html=1;rounded=0;" edge="1" parent="1">
          <mxGeometry width="50" height="50" relative="1" as="geometry">
            <mxPoint x="234.16000000000003" y="607" as="sourcePoint" />
            <mxPoint x="234.16000000000003" y="673" as="targetPoint" />
          </mxGeometry>
        </mxCell>
        <mxCell id="j6RUrQJ49Redqcj4AEcR-63" value="" style="endArrow=classic;html=1;rounded=0;" edge="1" parent="1">
          <mxGeometry width="50" height="50" relative="1" as="geometry">
            <mxPoint x="190.16000000000003" y="673" as="sourcePoint" />
            <mxPoint x="190" y="717" as="targetPoint" />
          </mxGeometry>
        </mxCell>
        <mxCell id="j6RUrQJ49Redqcj4AEcR-64" value="恭民" style="rounded=0;whiteSpace=wrap;html=1;" vertex="1" parent="1">
          <mxGeometry x="169" y="718" width="44" height="18" as="geometry" />
        </mxCell>
        <mxCell id="j6RUrQJ49Redqcj4AEcR-65" value="" style="endArrow=classic;html=1;rounded=0;" edge="1" parent="1">
          <mxGeometry width="50" height="50" relative="1" as="geometry">
            <mxPoint x="234.16000000000003" y="673" as="sourcePoint" />
            <mxPoint x="234" y="717" as="targetPoint" />
          </mxGeometry>
        </mxCell>
        <mxCell id="j6RUrQJ49Redqcj4AEcR-66" value="金枝" style="rounded=0;whiteSpace=wrap;html=1;" vertex="1" parent="1">
          <mxGeometry x="213" y="718" width="44" height="18" as="geometry" />
        </mxCell>
        <mxCell id="j6RUrQJ49Redqcj4AEcR-67" value="" style="endArrow=classic;html=1;rounded=0;" edge="1" parent="1">
          <mxGeometry width="50" height="50" relative="1" as="geometry">
            <mxPoint x="278.16" y="673" as="sourcePoint" />
            <mxPoint x="278" y="717" as="targetPoint" />
          </mxGeometry>
        </mxCell>
        <mxCell id="j6RUrQJ49Redqcj4AEcR-68" value="水兰" style="rounded=0;whiteSpace=wrap;html=1;" vertex="1" parent="1">
          <mxGeometry x="257" y="718" width="44" height="18" as="geometry" />
        </mxCell>
        <mxCell id="j6RUrQJ49Redqcj4AEcR-69" value="" style="endArrow=classic;html=1;rounded=0;" edge="1" parent="1">
          <mxGeometry width="50" height="50" relative="1" as="geometry">
            <mxPoint x="322.16" y="673" as="sourcePoint" />
            <mxPoint x="322" y="717" as="targetPoint" />
          </mxGeometry>
        </mxCell>
        <mxCell id="j6RUrQJ49Redqcj4AEcR-70" value="小兰" style="rounded=0;whiteSpace=wrap;html=1;" vertex="1" parent="1">
          <mxGeometry x="301" y="718" width="44" height="18" as="geometry" />
        </mxCell>
        <mxCell id="j6RUrQJ49Redqcj4AEcR-96" value="" style="endArrow=classic;html=1;rounded=0;" edge="1" parent="1">
          <mxGeometry width="50" height="50" relative="1" as="geometry">
            <mxPoint x="398.16" y="673" as="sourcePoint" />
            <mxPoint x="398" y="717" as="targetPoint" />
          </mxGeometry>
        </mxCell>
        <mxCell id="j6RUrQJ49Redqcj4AEcR-97" value="金美" style="rounded=0;whiteSpace=wrap;html=1;" vertex="1" parent="1">
          <mxGeometry x="377" y="718" width="44" height="18" as="geometry" />
        </mxCell>
        <mxCell id="j6RUrQJ49Redqcj4AEcR-98" value="" style="endArrow=none;html=1;rounded=0;" edge="1" parent="1">
          <mxGeometry width="50" height="50" relative="1" as="geometry">
            <mxPoint x="398" y="673" as="sourcePoint" />
            <mxPoint x="600" y="673" as="targetPoint" />
          </mxGeometry>
        </mxCell>
        <mxCell id="j6RUrQJ49Redqcj4AEcR-99" value="" style="endArrow=classic;html=1;rounded=0;" edge="1" parent="1">
          <mxGeometry width="50" height="50" relative="1" as="geometry">
            <mxPoint x="465.16" y="674" as="sourcePoint" />
            <mxPoint x="465" y="718" as="targetPoint" />
          </mxGeometry>
        </mxCell>
        <mxCell id="j6RUrQJ49Redqcj4AEcR-100" value="恭文" style="rounded=0;whiteSpace=wrap;html=1;" vertex="1" parent="1">
          <mxGeometry x="443" y="718" width="44" height="18" as="geometry" />
        </mxCell>
        <mxCell id="j6RUrQJ49Redqcj4AEcR-101" value="" style="endArrow=classic;html=1;rounded=0;" edge="1" parent="1">
          <mxGeometry width="50" height="50" relative="1" as="geometry">
            <mxPoint x="533.1600000000001" y="673" as="sourcePoint" />
            <mxPoint x="533" y="717" as="targetPoint" />
          </mxGeometry>
        </mxCell>
        <mxCell id="j6RUrQJ49Redqcj4AEcR-102" value="恭武" style="rounded=0;whiteSpace=wrap;html=1;" vertex="1" parent="1">
          <mxGeometry x="512" y="718" width="44" height="18" as="geometry" />
        </mxCell>
        <mxCell id="j6RUrQJ49Redqcj4AEcR-105" value="" style="endArrow=classic;html=1;rounded=0;" edge="1" parent="1">
          <mxGeometry width="50" height="50" relative="1" as="geometry">
            <mxPoint x="599.1600000000001" y="673" as="sourcePoint" />
            <mxPoint x="599" y="717" as="targetPoint" />
          </mxGeometry>
        </mxCell>
        <mxCell id="j6RUrQJ49Redqcj4AEcR-106" value="凡龙" style="rounded=0;whiteSpace=wrap;html=1;" vertex="1" parent="1">
          <mxGeometry x="578" y="718" width="44" height="18" as="geometry" />
        </mxCell>
        <mxCell id="j6RUrQJ49Redqcj4AEcR-107" value="" style="endArrow=classic;html=1;rounded=0;" edge="1" parent="1">
          <mxGeometry width="50" height="50" relative="1" as="geometry">
            <mxPoint x="498.66" y="607" as="sourcePoint" />
            <mxPoint x="498.66" y="673" as="targetPoint" />
          </mxGeometry>
        </mxCell>
        <mxCell id="j6RUrQJ49Redqcj4AEcR-108" value="" style="endArrow=classic;html=1;rounded=0;" edge="1" parent="1">
          <mxGeometry width="50" height="50" relative="1" as="geometry">
            <mxPoint x="101.16000000000003" y="799" as="sourcePoint" />
            <mxPoint x="101" y="843" as="targetPoint" />
          </mxGeometry>
        </mxCell>
        <mxCell id="j6RUrQJ49Redqcj4AEcR-109" value="亚" style="rounded=0;whiteSpace=wrap;html=1;" vertex="1" parent="1">
          <mxGeometry x="80" y="844" width="44" height="18" as="geometry" />
        </mxCell>
        <mxCell id="j6RUrQJ49Redqcj4AEcR-110" value="" style="endArrow=none;html=1;rounded=0;" edge="1" parent="1">
          <mxGeometry width="50" height="50" relative="1" as="geometry">
            <mxPoint x="101" y="799" as="sourcePoint" />
            <mxPoint x="277" y="799" as="targetPoint" />
          </mxGeometry>
        </mxCell>
        <mxCell id="j6RUrQJ49Redqcj4AEcR-113" value="" style="endArrow=classic;html=1;rounded=0;" edge="1" parent="1">
          <mxGeometry width="50" height="50" relative="1" as="geometry">
            <mxPoint x="189.16000000000003" y="799" as="sourcePoint" />
            <mxPoint x="189" y="843" as="targetPoint" />
          </mxGeometry>
        </mxCell>
        <mxCell id="j6RUrQJ49Redqcj4AEcR-114" value="俊" style="rounded=0;whiteSpace=wrap;html=1;" vertex="1" parent="1">
          <mxGeometry x="168" y="844" width="44" height="18" as="geometry" />
        </mxCell>
        <mxCell id="j6RUrQJ49Redqcj4AEcR-117" value="" style="endArrow=classic;html=1;rounded=0;" edge="1" parent="1">
          <mxGeometry width="50" height="50" relative="1" as="geometry">
            <mxPoint x="277.1600000000001" y="799" as="sourcePoint" />
            <mxPoint x="277" y="843" as="targetPoint" />
          </mxGeometry>
        </mxCell>
        <mxCell id="j6RUrQJ49Redqcj4AEcR-118" value="旭辉" style="rounded=0;whiteSpace=wrap;html=1;" vertex="1" parent="1">
          <mxGeometry x="256" y="844" width="44" height="18" as="geometry" />
        </mxCell>
        <mxCell id="j6RUrQJ49Redqcj4AEcR-119" value="" style="endArrow=classic;html=1;rounded=0;" edge="1" parent="1">
          <mxGeometry width="50" height="50" relative="1" as="geometry">
            <mxPoint x="189" y="736" as="sourcePoint" />
            <mxPoint x="189" y="798" as="targetPoint" />
          </mxGeometry>
        </mxCell>
        <mxCell id="j6RUrQJ49Redqcj4AEcR-120" value="" style="endArrow=classic;html=1;rounded=0;" edge="1" parent="1">
          <mxGeometry width="50" height="50" relative="1" as="geometry">
            <mxPoint x="442.16" y="798" as="sourcePoint" />
            <mxPoint x="442" y="842" as="targetPoint" />
          </mxGeometry>
        </mxCell>
        <mxCell id="j6RUrQJ49Redqcj4AEcR-121" value="益成" style="rounded=0;whiteSpace=wrap;html=1;" vertex="1" parent="1">
          <mxGeometry x="421" y="843" width="44" height="18" as="geometry" />
        </mxCell>
        <mxCell id="j6RUrQJ49Redqcj4AEcR-122" value="" style="endArrow=none;html=1;rounded=0;" edge="1" parent="1">
          <mxGeometry width="50" height="50" relative="1" as="geometry">
            <mxPoint x="442.75" y="799" as="sourcePoint" />
            <mxPoint x="487" y="799" as="targetPoint" />
          </mxGeometry>
        </mxCell>
        <mxCell id="j6RUrQJ49Redqcj4AEcR-125" value="" style="endArrow=classic;html=1;rounded=0;" edge="1" parent="1">
          <mxGeometry width="50" height="50" relative="1" as="geometry">
            <mxPoint x="486.1600000000001" y="798" as="sourcePoint" />
            <mxPoint x="486" y="842" as="targetPoint" />
          </mxGeometry>
        </mxCell>
        <mxCell id="j6RUrQJ49Redqcj4AEcR-126" value="国庆" style="rounded=0;whiteSpace=wrap;html=1;" vertex="1" parent="1">
          <mxGeometry x="460" y="843" width="44" height="18" as="geometry" />
        </mxCell>
        <mxCell id="j6RUrQJ49Redqcj4AEcR-127" value="" style="endArrow=classic;html=1;rounded=0;" edge="1" parent="1">
          <mxGeometry width="50" height="50" relative="1" as="geometry">
            <mxPoint x="464" y="735" as="sourcePoint" />
            <mxPoint x="464.31" y="800" as="targetPoint" />
          </mxGeometry>
        </mxCell>
        <mxCell id="j6RUrQJ49Redqcj4AEcR-128" value="" style="endArrow=classic;html=1;rounded=0;entryX=0.5;entryY=0;entryDx=0;entryDy=0;" edge="1" parent="1" target="j6RUrQJ49Redqcj4AEcR-130">
          <mxGeometry width="50" height="50" relative="1" as="geometry">
            <mxPoint x="533.66" y="736" as="sourcePoint" />
            <mxPoint x="533.97" y="801" as="targetPoint" />
          </mxGeometry>
        </mxCell>
        <mxCell id="j6RUrQJ49Redqcj4AEcR-130" value="冬霞" style="rounded=0;whiteSpace=wrap;html=1;" vertex="1" parent="1">
          <mxGeometry x="512" y="843" width="44" height="18" as="geometry" />
        </mxCell>
        <mxCell id="j6RUrQJ49Redqcj4AEcR-131" value="" style="endArrow=classic;html=1;rounded=0;entryX=0.5;entryY=0;entryDx=0;entryDy=0;" edge="1" parent="1" target="j6RUrQJ49Redqcj4AEcR-132">
          <mxGeometry width="50" height="50" relative="1" as="geometry">
            <mxPoint x="599.66" y="736" as="sourcePoint" />
            <mxPoint x="599.97" y="801" as="targetPoint" />
          </mxGeometry>
        </mxCell>
        <mxCell id="j6RUrQJ49Redqcj4AEcR-132" value="魁元" style="rounded=0;whiteSpace=wrap;html=1;" vertex="1" parent="1">
          <mxGeometry x="578" y="843" width="44" height="18" as="geometry" />
        </mxCell>
        <mxCell id="j6RUrQJ49Redqcj4AEcR-139" value="" style="endArrow=classic;html=1;rounded=0;" edge="1" parent="1">
          <mxGeometry width="50" height="50" relative="1" as="geometry">
            <mxPoint x="254.16000000000003" y="925" as="sourcePoint" />
            <mxPoint x="254" y="969" as="targetPoint" />
          </mxGeometry>
        </mxCell>
        <mxCell id="j6RUrQJ49Redqcj4AEcR-140" value="雨欣" style="rounded=0;whiteSpace=wrap;html=1;" vertex="1" parent="1">
          <mxGeometry x="233" y="970" width="44" height="18" as="geometry" />
        </mxCell>
        <mxCell id="j6RUrQJ49Redqcj4AEcR-141" value="" style="endArrow=none;html=1;rounded=0;" edge="1" parent="1">
          <mxGeometry width="50" height="50" relative="1" as="geometry">
            <mxPoint x="254.75" y="926" as="sourcePoint" />
            <mxPoint x="299" y="926" as="targetPoint" />
          </mxGeometry>
        </mxCell>
        <mxCell id="j6RUrQJ49Redqcj4AEcR-142" value="" style="endArrow=classic;html=1;rounded=0;" edge="1" parent="1">
          <mxGeometry width="50" height="50" relative="1" as="geometry">
            <mxPoint x="298.1600000000001" y="925" as="sourcePoint" />
            <mxPoint x="298" y="969" as="targetPoint" />
          </mxGeometry>
        </mxCell>
        <mxCell id="j6RUrQJ49Redqcj4AEcR-143" value="宇浩" style="rounded=0;whiteSpace=wrap;html=1;" vertex="1" parent="1">
          <mxGeometry x="272" y="970" width="44" height="18" as="geometry" />
        </mxCell>
        <mxCell id="j6RUrQJ49Redqcj4AEcR-144" value="" style="endArrow=classic;html=1;rounded=0;" edge="1" parent="1">
          <mxGeometry width="50" height="50" relative="1" as="geometry">
            <mxPoint x="276" y="862" as="sourcePoint" />
            <mxPoint x="276.31" y="927" as="targetPoint" />
          </mxGeometry>
        </mxCell>
        <mxCell id="j6RUrQJ49Redqcj4AEcR-145" value="" style="endArrow=classic;html=1;rounded=0;" edge="1" parent="1">
          <mxGeometry width="50" height="50" relative="1" as="geometry">
            <mxPoint x="654.6600000000001" y="162" as="sourcePoint" />
            <mxPoint x="654.6600000000001" y="228" as="targetPoint" />
          </mxGeometry>
        </mxCell>
        <mxCell id="j6RUrQJ49Redqcj4AEcR-147" value="梦雨......" style="rounded=0;whiteSpace=wrap;html=1;" vertex="1" parent="1">
          <mxGeometry x="592" y="228" width="126" height="62" as="geometry" />
        </mxCell>
        <mxCell id="j6RUrQJ49Redqcj4AEcR-148" value="@author：zkyuan" style="text;html=1;align=center;verticalAlign=middle;whiteSpace=wrap;rounded=0;" vertex="1" parent="1">
          <mxGeometry x="597" y="958" width="145" height="30" as="geometry" />
        </mxCell>
      </root>
    </mxGraphModel>
  </diagram>
</mxfile>
